<svg xmlns="http://www.w3.org/2000/svg" width="55" height="53.655" viewBox="0 0 55 53.655"><g transform="translate(0 -5.365)"><path d="M51.311,19.061A27.38,27.38,0,0,0,41.3,9.053,26.9,26.9,0,0,0,27.5,5.365,26.9,26.9,0,0,0,13.7,9.053,27.377,27.377,0,0,0,3.688,19.061,26.9,26.9,0,0,0,0,32.864,26.725,26.725,0,0,0,5.246,49.031,26.933,26.933,0,0,0,18.8,58.967a1.6,1.6,0,0,0,1.432-.25,1.4,1.4,0,0,0,.465-1.074q0-.107-.018-1.934t-.018-3.186l-.824.142a10.506,10.506,0,0,1-1.987.125,15.142,15.142,0,0,1-2.488-.251,5.561,5.561,0,0,1-2.4-1.073,4.543,4.543,0,0,1-1.575-2.2l-.358-.824A8.947,8.947,0,0,0,9.9,46.615a4.321,4.321,0,0,0-1.558-1.36l-.251-.179a2.628,2.628,0,0,1-.465-.43,1.964,1.964,0,0,1-.322-.5q-.108-.251.179-.412a2.322,2.322,0,0,1,1.038-.16l.716.107a5.227,5.227,0,0,1,1.772.859A5.779,5.779,0,0,1,12.747,46.4a6.312,6.312,0,0,0,1.987,2.238,4.216,4.216,0,0,0,2.345.77,10.183,10.183,0,0,0,2.041-.178,7.122,7.122,0,0,0,1.611-.537A5.8,5.8,0,0,1,22.486,45a24.518,24.518,0,0,1-3.67-.645,14.613,14.613,0,0,1-3.365-1.4,9.64,9.64,0,0,1-2.883-2.4,11.529,11.529,0,0,1-1.88-3.76,17.879,17.879,0,0,1-.734-5.371,10.444,10.444,0,0,1,2.829-7.377,9.626,9.626,0,0,1,.25-7.3,5.018,5.018,0,0,1,3.079.483,21.529,21.529,0,0,1,2.99,1.379q.949.572,1.522.967a25.86,25.86,0,0,1,13.751,0l1.361-.859a19.27,19.27,0,0,1,3.294-1.576,4.693,4.693,0,0,1,2.9-.394,9.533,9.533,0,0,1,.286,7.3,10.446,10.446,0,0,1,2.829,7.377,18.079,18.079,0,0,1-.734,5.389,11.081,11.081,0,0,1-1.9,3.76,10.01,10.01,0,0,1-2.9,2.381,14.641,14.641,0,0,1-3.366,1.4,24.492,24.492,0,0,1-3.67.645q1.861,1.611,1.861,5.084v7.555a1.426,1.426,0,0,0,.448,1.074,1.555,1.555,0,0,0,1.414.25A26.929,26.929,0,0,0,49.755,49.03,26.731,26.731,0,0,0,55,32.863,26.922,26.922,0,0,0,51.311,19.061Z" transform="translate(0)" fill="#aaa"/></g></svg>