<svg xmlns="http://www.w3.org/2000/svg" width="54.381" height="54.382" viewBox="0 0 54.381 54.382"><g transform="translate(-0.007)"><g transform="translate(0.007)"><g transform="translate(0)"><path d="M43.98,15.8a1.062,1.062,0,0,0,1.062-1.062V3.186A3.19,3.19,0,0,0,41.856,0H3.193A3.19,3.19,0,0,0,.007,3.186V51.2a3.19,3.19,0,0,0,3.186,3.186H41.856A3.19,3.19,0,0,0,45.042,51.2V43.371a1.062,1.062,0,0,0-2.124,0V51.2a1.063,1.063,0,0,1-1.062,1.062H3.193A1.063,1.063,0,0,1,2.131,51.2V3.186A1.063,1.063,0,0,1,3.193,2.124H41.856a1.063,1.063,0,0,1,1.062,1.062V14.737A1.062,1.062,0,0,0,43.98,15.8Z" transform="translate(-0.007)" fill="#aaa"/></g></g><g transform="translate(12.753 5.736)"><path d="M129.779,54a9.767,9.767,0,0,0-6.7,16.874,1.051,1.051,0,0,0,.114.106,9.753,9.753,0,0,0,13.18,0,1.059,1.059,0,0,0,.114-.106A9.767,9.767,0,0,0,129.779,54Zm0,17.419a7.607,7.607,0,0,1-4.619-1.558,5.311,5.311,0,0,1,9.239,0A7.607,7.607,0,0,1,129.779,71.419Zm-1.7-8.072v-.69a1.7,1.7,0,1,1,3.4,0v.69a1.7,1.7,0,0,1-3.4,0Zm7.854,4.958a7.369,7.369,0,0,0-3.129-2.623,3.8,3.8,0,0,0,.8-2.335v-.69a3.824,3.824,0,1,0-7.648,0v.69a3.8,3.8,0,0,0,.8,2.335,7.369,7.369,0,0,0-3.129,2.623,7.648,7.648,0,1,1,12.308,0Z" transform="translate(-120.007 -54)" fill="#aaa"/></g><g transform="translate(21.463 46.522)"><path d="M208.8,438h-5.736a1.062,1.062,0,0,0,0,2.124H208.8a1.062,1.062,0,0,0,0-2.124Z" transform="translate(-202.007 -438)" fill="#aaa"/></g><g transform="translate(12.116 40.574)"><path d="M130.152,382H115.069a1.062,1.062,0,1,0,0,2.124h15.083a1.062,1.062,0,1,0,0-2.124Z" transform="translate(-114.007 -382)" fill="#aaa"/></g><g transform="translate(12.116 34.626)"><path d="M130.152,326H115.069a1.062,1.062,0,1,0,0,2.124h15.083a1.062,1.062,0,1,0,0-2.124Z" transform="translate(-114.007 -326)" fill="#aaa"/></g><g transform="translate(7.578 28.678)"><path d="M73.1,270.311a1.061,1.061,0,1,0,.311.751A1.07,1.07,0,0,0,73.1,270.311Z" transform="translate(-71.287 -270)" fill="#aaa"/></g><g transform="translate(7.578 34.626)"><path d="M73.1,326.311a1.061,1.061,0,1,0,.311.751A1.072,1.072,0,0,0,73.1,326.311Z" transform="translate(-71.287 -326)" fill="#aaa"/></g><g transform="translate(7.578 40.574)"><path d="M73.1,382.311a1.061,1.061,0,1,0,.311.751A1.072,1.072,0,0,0,73.1,382.311Z" transform="translate(-71.287 -382)" fill="#aaa"/></g><g transform="translate(12.116 28.678)"><path d="M130.152,270H115.069a1.062,1.062,0,0,0,0,2.124h15.083a1.062,1.062,0,1,0,0-2.124Z" transform="translate(-114.007 -270)" fill="#aaa"/></g><g transform="translate(31.615 13.242)"><path d="M318.133,125.275a4.461,4.461,0,0,0-6.094,1.633l-13.366,23.151a1.064,1.064,0,0,0-.136.413L297.6,158.9a1.062,1.062,0,0,0,1.685.973l6.828-5.029a1.06,1.06,0,0,0,.29-.324l13.366-23.151A4.466,4.466,0,0,0,318.133,125.275Zm-18.156,31.448.491-4.4,3.074,1.775Zm5.114-4.185-4.047-2.337,10.726-18.578,4.047,2.337Zm12.835-22.231-1.047,1.813-4.047-2.337,1.047-1.813a2.337,2.337,0,0,1,4.047,2.337Z" transform="translate(-297.589 -124.675)" fill="#aaa"/></g></g></svg>